# xmcd
# Track frame offsets:
# 150
# 14827
# 30750
# 48487
# 67195
# 89245
# 105440
# 136782
# 153192
# 164435
# 179215
# 190017
#
# Disc length: 2751 seconds
# Revision: 1
# Processed by: cddbd v1.4PL0 Copyright (c) Steve Scherf et al.
# Submitted via: VisiTrax 2.9.3.171 - For more info visit www.synapsa.com
#
DISCID=a20abd0c
DTITLE=Various Artist - Country Traxx
DYEAR=1900
DGENRE=Country
TTITLE0=Martina McBride - Wrong Again
TTITLE1=Lonestar - What About Now
TTITLE2=Phil Vassar - Just Another Day in Paradise
TTITLE3=Kenny Chesney - She Thinks My Tractor's Sexy
TTITLE4=Carolyn Dawn Johnson - Georgia
TTITLE5=George Jones - Who's Gonna Fill Their Shoes
TTITLE6=Alabama - When It All Goes South
TTITLE7=Sara Evans - No Place That Far
TTITLE8=Alan Jackson - Tall, Tall Trees
TTITLE9=Brooks and Dunn - I Would For You
TTITLE10=Diamond Rio - Unbelievable
TTITLE11=Brad Paisley - He Didn't Have To Be
EXTD=Hit new country compilation album.
EXTT0=
EXTT1=
EXTT2=
EXTT3=
EXTT4=
EXTT5=
EXTT6=
EXTT7=
EXTT8=
EXTT9=
EXTT10=
EXTT11=
PLAYORDER=
